<svg xmlns="http://www.w3.org/2000/svg" width="68.064" height="68.064" viewBox="0 0 68.064 68.064"><path d="M6.032 21.936h8.96l2.688 7.84h3.584l-8.51-25.312H8.72L.208 29.776h3.36l2.464-7.84zM9.17 12.08c.446-1.567.895-3.137 1.343-4.48.448 1.568.672 2.913 1.344 4.705l2.464 7.168H6.705L9.17 12.08zM47.696 50.384c0-1.344-.896-3.36-2.464-6.047 0-.896.672-2.018 1.792-3.14 1.12-1.343 2.016-2.237 2.24-2.91-.448-.673-1.344-1.12-2.465-1.567-.226 0-.897.447-2.464 1.344-1.12.45-1.793.896-2.466.896-.224 0-.672 0-1.118-.225-.45-.223-.896-.223-1.12-.223h-.672c.447.672.672 1.344.672 1.568v17.47c0 .45 0 1.122-.225 2.02-.224.895-.224 1.565-.224 2.015 0 1.12.447 1.793 1.12 2.24l.895-.225c.226 0 .226-.895.448-2.688V39.858c2.24-.672 3.808-1.12 4.928-1.568l.225.225v.225c-.448.896-.673 1.79-1.12 2.465-.672 1.344-.896 2.016-.896 2.463 0 .225.226.896.672 2.018.448 1.344.673 2.016.896 2.24l-.225.447c-1.345-.227-2.688-.447-4.03-.674.67.226 1.565.895 2.687 1.792s2.017 1.566 2.464 1.79c.223.223.448-.227.448-.898zM64.272 46.128c1.568 0 2.688-.225 3.136-.447 0-.448-.447-.895-1.12-1.343-.672-.45-1.118-.45-1.792-.45-1.12 0-2.688.226-4.48.673-2.24.45-3.81.672-4.255.896-3.583.447-6.27.672-8.063.895.672 1.12 1.344 1.792 2.24 1.792.672 0 1.568 0 2.912-.223.895-.226 1.79-.226 2.91-.45.447.45.673.896.673 1.793V60.91l-.226.224-.446-.223c-1.792-.448-3.137-.673-4.032-.895.673.447 1.345 1.344 2.24 2.463.896 1.12 1.567 2.018 2.017 2.465 1.567-.896 2.464-2.688 2.464-5.6V53.07c0-2.463-.226-4.48-.673-6.27 2.91-.448 4.927-.672 6.495-.672zM64.944 53.52c-1.568-.672-3.137-1.12-4.704-1.12.672.67 2.018 1.567 3.36 3.136 1.344 1.344 2.688 2.465 3.358 3.137.673 0 .896-.672.896-1.793.002-1.344-.893-2.463-2.91-3.36zM60.688 37.616c-.448 0-1.12.225-2.24.447-1.567.45-2.24.672-2.24.672-1.118.225-2.688.45-4.702.672 0 .896.896 1.346 2.463 1.346.895 0 2.464-.225 4.704-.45 2.463-.446 3.808-.67 4.03-1.118 0-.447-.224-.672-.896-1.12-.224-.45-.672-.45-1.12-.45zM50.608 51.727l-.672 1.344c-.225.897-.448 1.347-.672 1.57-.448.448-.896 1.12-1.568 1.792-.672.896-.896 1.344-.896 1.79 0 .226 0 .45.225.673.224.225.447.225.672.225.672 0 1.568-.447 2.24-1.568.672-.896.896-2.016.896-3.135.447-1.793.222-2.69-.225-2.69zM49.04 16.336s19.714-2.24 14.112 17.022C79.727 7.598 49.04 5.808 49.04 5.808V1.103l-15.68 10.08 15.68 10.08v-4.928zM19.024 51.727S-.688 53.967 4.912 34.704c-16.575 25.76 14.112 27.553 14.112 27.553v4.703l15.68-10.08-15.68-10.08v4.927z"/></svg>